<?xml version="1.0" ?><!DOCTYPE svg  PUBLIC '-//W3C//DTD SVG 1.1//EN'  'http://www.w3.org/Graphics/SVG/1.1/DTD/svg11.dtd'><svg height="0.953437in" style="shape-rendering:geometricPrecision; text-rendering:geometricPrecision; image-rendering:optimizeQuality; fill-rule:evenodd; clip-rule:evenodd" version="1.1" viewBox="0 0 123 113" width="1.03763in" xml:space="preserve" xmlns="http://www.w3.org/2000/svg" xmlns:xlink="http://www.w3.org/1999/xlink"><defs><style type="text/css">
   <![CDATA[
    .fil1 {fill:#FEFEFE}
    .fil0 {fill:#201E1E}
   ]]>
  </style></defs><g id="Layer_x0020_1"><g id="_468984400"><ellipse class="fil0" cx="62" cy="95" rx="62" ry="18"/><path class="fil0" d="M78 94c-1,1 -2,2 -3,3 -6,2 -12,2 -19,1 -10,-1 -19,-6 -26,-13 -9,-10 -15,-24 -13,-38 0,0 -1,0 -2,0 -4,0 -6,-3 -6,-7 -1,-2 0,-5 2,-6 7,-6 11,-14 16,-22 2,-3 6,-4 9,-3 2,-6 11,-8 17,-8 4,-1 9,-1 13,-1 10,1 21,4 28,11 16,14 19,38 12,58 4,4 2,9 -2,12 -1,1 -2,2 -4,3 -6,5 -12,6 -18,9 -1,1 -3,1 -4,1zm-33 -67c1,2 2,5 3,8 1,0 1,1 1,1 2,3 2,7 0,10 -2,2 -4,3 -7,2 -1,0 -2,0 -3,0 -2,14 15,30 29,26 0,0 0,0 1,0 -1,-3 -1,-5 -1,-8 0,-3 2,-6 4,-7 2,-1 3,-2 5,-2 1,0 2,0 2,0 2,1 4,1 5,2 5,-9 3,-19 -4,-26 -12,-12 -16,-8 -29,-7 -2,1 -4,1 -6,1z"/><g><path class="fil1" d="M74 89c0,-3 0,-5 -1,-8 0,-1 -1,-1 -2,-1 0,0 -1,-1 -2,-1 -20,6 -42,-17 -34,-37 2,0 5,0 8,0 2,1 2,-3 0,-3 0,0 0,0 0,0 0,0 1,-1 0,-2 -3,-7 -6,-14 -8,-21 -1,-2 -3,-2 -3,-1 -5,9 -10,17 -17,23 -1,1 -1,1 0,2 -1,0 0,1 1,1 1,0 2,1 4,1 1,0 3,1 4,1 -9,27 22,58 49,48 1,0 1,-1 1,-2 0,0 0,0 0,0z"/><path class="fil1" d="M99 71c9,-18 7,-42 -9,-56 -6,-6 -16,-8 -25,-9 -5,-1 -26,0 -23,7 0,2 1,5 2,6 0,2 2,1 2,2 1,1 2,0 2,-1 16,0 22,-6 36,9 10,10 12,26 3,37 0,0 0,0 0,0 -3,-1 -6,-2 -9,-3 0,0 -1,0 -1,0 0,0 -1,0 -1,1 0,0 -1,0 -1,0 0,0 -1,1 -1,2 1,7 1,14 3,21 0,1 1,2 2,1 6,-3 13,-5 18,-9 1,-1 3,-2 4,-3 1,0 2,-2 1,-3 -1,0 -2,-1 -3,-2z"/></g></g></g></svg>